<?xml version="1.0" encoding="UTF-8"?>
<svg version="1.1" xmlns="http://www.w3.org/2000/svg" width="119" height="44">
<path d="M0 0 C39.27 0 78.54 0 119 0 C119 14.52 119 29.04 119 44 C79.73 44 40.46 44 0 44 C0 29.48 0 14.96 0 0 Z " fill="#FDFBFA" transform="translate(0,0)"/>
<path d="M0 0 C9.9 0.33 19.8 0.66 30 1 C30 3.31 30 5.62 30 8 C28.82630859 7.98259766 28.82630859 7.98259766 27.62890625 7.96484375 C26.61699219 7.95582031 25.60507812 7.94679688 24.5625 7.9375 C23.04849609 7.92009766 23.04849609 7.92009766 21.50390625 7.90234375 C19.05978933 7.71387324 19.05978933 7.71387324 18 9 C21.96 9 25.92 9 30 9 C30 9.99 30 10.98 30 12 C28.33710937 11.96519531 28.33710937 11.96519531 26.640625 11.9296875 C25.17709008 11.91092423 23.71354786 11.89272463 22.25 11.875 C21.52039063 11.85824219 20.79078125 11.84148438 20.0390625 11.82421875 C16.1955376 11.78927761 13.25393228 11.82500316 10 14 C10.57975586 13.83701416 11.15951172 13.67402832 11.75683594 13.50610352 C15.22673123 12.72322444 18.712623 12.89687641 22.25 12.9375 C22.99507812 12.94201172 23.74015625 12.94652344 24.5078125 12.95117188 C26.3385764 12.96290754 28.16929873 12.9808415 30 13 C30 13.66 30 14.32 30 15 C29.24074219 15.03738281 28.48148438 15.07476562 27.69921875 15.11328125 C26.70535156 15.17902344 25.71148438 15.24476562 24.6875 15.3125 C23.70136719 15.37050781 22.71523438 15.42851562 21.69921875 15.48828125 C18.66232933 16.06401571 18.0287824 16.80844996 16 19 C12.27013478 19.26641894 9.55353929 19.1845131 6 18 C6 18.99 6 19.98 6 21 C7.79323253 20.71812064 9.58457126 20.4241719 11.375 20.125 C12.87160156 19.88136719 12.87160156 19.88136719 14.3984375 19.6328125 C17.1425115 19.2041198 17.1425115 19.2041198 19 17 C21.6015625 16.8046875 21.6015625 16.8046875 24.625 16.875 C26.12933594 16.90207031 26.12933594 16.90207031 27.6640625 16.9296875 C28.43492188 16.95289062 29.20578125 16.97609375 30 17 C30.04254356 18.99954746 30.04080783 21.00041636 30 23 C28.16965945 24.83034055 25.26788008 24.13042797 22.8125 24.1328125 C21.55695312 24.13410156 20.30140625 24.13539062 19.0078125 24.13671875 C18.35071289 24.13462402 17.69361328 24.1325293 17.01660156 24.13037109 C15.00838665 24.12502234 13.00039541 24.13031691 10.9921875 24.13671875 C9.73664062 24.13542969 8.48109375 24.13414063 7.1875 24.1328125 C6.02605469 24.13168457 4.86460938 24.13055664 3.66796875 24.12939453 C1 24 1 24 0 23 C-0.08713831 21.29227642 -0.10700007 19.58101351 -0.09765625 17.87109375 C-0.09515869 16.93966553 -0.09266113 16.0082373 -0.09008789 15.04858398 C-0.08098389 13.85692627 -0.07187988 12.66526855 -0.0625 11.4375 C-0.041875 7.663125 -0.02125 3.88875 0 0 Z " fill="#FAF5F2" transform="translate(6,13)"/>
<path d="M0 0 C1.11826172 0.00966797 2.23652344 0.01933594 3.38867188 0.02929688 C5.13954102 0.06700195 5.13954102 0.06700195 6.92578125 0.10546875 C8.10462891 0.11900391 9.28347656 0.13253906 10.49804688 0.14648438 C13.41191536 0.18187549 16.3248707 0.23125066 19.23828125 0.29296875 C19.34140625 1.40671875 19.44453125 2.52046875 19.55078125 3.66796875 C19.89109375 5.46234375 19.89109375 5.46234375 20.23828125 7.29296875 C21.22828125 7.95296875 22.21828125 8.61296875 23.23828125 9.29296875 C13.66828125 9.29296875 4.09828125 9.29296875 -5.76171875 9.29296875 C-5.76171875 16.88296875 -5.76171875 24.47296875 -5.76171875 32.29296875 C-6.42171875 32.29296875 -7.08171875 32.29296875 -7.76171875 32.29296875 C-9.99060121 27.83520384 -8.99164604 21.75070105 -9.01171875 16.85546875 C-9.03234375 15.60185547 -9.05296875 14.34824219 -9.07421875 13.05664062 C-9.079375 11.85716797 -9.08453125 10.65769531 -9.08984375 9.421875 C-9.09918945 8.3191626 -9.10853516 7.2164502 -9.11816406 6.08032227 C-8.76171875 3.29296875 -8.76171875 3.29296875 -7.60131836 1.42822266 C-4.99605923 -0.17953514 -3.04704926 -0.04640177 0 0 Z " fill="#D69E75" transform="translate(12.76171875,4.70703125)"/>
<path d="M0 0 C0.66 0.33 1.32 0.66 2 1 C2.05789006 4.45826342 2.09355821 7.91640293 2.125 11.375 C2.14175781 12.35984375 2.15851562 13.3446875 2.17578125 14.359375 C2.18222656 15.30039062 2.18867187 16.24140625 2.1953125 17.2109375 C2.20578613 18.08024902 2.21625977 18.94956055 2.22705078 19.84521484 C2 22 2 22 0 24 C-2.88916016 24.22705078 -2.88916016 24.22705078 -6.5390625 24.1953125 C-8.49199219 24.18564453 -8.49199219 24.18564453 -10.484375 24.17578125 C-11.86458595 24.15906929 -13.24479429 24.14213939 -14.625 24.125 C-16.01301452 24.11497006 -17.40103589 24.10584423 -18.7890625 24.09765625 C-22.19288026 24.07401863 -25.59635506 24.04106867 -29 24 C-29 23.67 -29 23.34 -29 23 C-19.76 22.67 -10.52 22.34 -1 22 C-0.67 20.02 -0.34 18.04 0 16 C-1.79240663 16.11389875 -3.58394835 16.24147687 -5.375 16.375 C-6.87160156 16.47941406 -6.87160156 16.47941406 -8.3984375 16.5859375 C-11.15508879 16.76363964 -11.15508879 16.76363964 -13 19 C-17.11626002 19.66391291 -20.82848829 20 -25 20 C-24.67 18.68 -24.34 17.36 -24 16 C-23.01 16.33 -22.02 16.66 -21 17 C-17.5 17.33333333 -17.5 17.33333333 -14 17 C-13.55011719 16.50371094 -13.10023437 16.00742187 -12.63671875 15.49609375 C-10.25889595 13.32257076 -8.46642791 13.7011849 -5.3125 13.8125 C-4.31863281 13.83957031 -3.32476562 13.86664063 -2.30078125 13.89453125 C-1.16189453 13.94673828 -1.16189453 13.94673828 0 14 C0 13.34 0 12.68 0 12 C-6.6 12.33 -13.2 12.66 -20 13 C-19.67 12.01 -19.34 11.02 -19 10 C-19 10.66 -19 11.32 -19 12 C-18.34 12 -17.68 12 -17 12 C-16.67 11.34 -16.34 10.68 -16 10 C-10.72 10.33 -5.44 10.66 0 11 C0 10.01 0 9.02 0 8 C-3.96 8 -7.92 8 -12 8 C-11.67 7.34 -11.34 6.68 -11 6 C-5.555 6.495 -5.555 6.495 0 7 C0 4.69 0 2.38 0 0 Z " fill="#D39566" transform="translate(36,14)"/>
<path d="M0 0 C8.25 0 16.5 0 25 0 C25 1.98 25 3.96 25 6 C21.20834926 6.0289337 17.41672673 6.04677601 13.625 6.0625 C12.54476563 6.07087891 11.46453125 6.07925781 10.3515625 6.08789062 C8.8046875 6.09272461 8.8046875 6.09272461 7.2265625 6.09765625 C6.27346191 6.10289307 5.32036133 6.10812988 4.33837891 6.11352539 C2 6 2 6 0 5 C0 3.35 0 1.7 0 0 Z " fill="#F6ECE7" transform="translate(6,7)"/>
<path d="M0 0 C5.61 0 11.22 0 17 0 C17.33 0.99 17.66 1.98 18 3 C17.01 3.33 16.02 3.66 15 4 C15.99 4.33 16.98 4.66 18 5 C18.6875 7.0625 18.6875 7.0625 19 9 C17.54257537 9.08096803 16.08387193 9.13917774 14.625 9.1875 C13.81289062 9.22230469 13.00078125 9.25710937 12.1640625 9.29296875 C11.44992188 9.19628906 10.73578125 9.09960938 10 9 C9.34 8.01 8.68 7.02 8 6 C7.34 6 6.68 6 6 6 C6 6.99 6 7.98 6 9 C5.01 9 4.02 9 3 9 C3 7.02 3 5.04 3 3 C2.01 3 1.02 3 0 3 C0 2.01 0 1.02 0 0 Z " fill="#DCAD83" transform="translate(54,9)"/>
<path d="M0 0 C1.40668945 0.00966797 1.40668945 0.00966797 2.84179688 0.01953125 C4.30649414 0.04466797 4.30649414 0.04466797 5.80078125 0.0703125 C6.78884766 0.07933594 7.77691406 0.08835937 8.79492188 0.09765625 C11.2346189 0.1212282 13.67382822 0.15413228 16.11328125 0.1953125 C16.11328125 2.5053125 16.11328125 4.8153125 16.11328125 7.1953125 C14.34320411 7.27645356 12.57206027 7.33456755 10.80078125 7.3828125 C9.81464844 7.41761719 8.82851563 7.45242187 7.8125 7.48828125 C4.6202566 7.14180042 4.2298712 6.44700393 2.11328125 4.1953125 C-0.38115649 3.40733195 -0.38115649 3.40733195 -3.07421875 3.0078125 C-4.42580078 2.76998047 -4.42580078 2.76998047 -5.8046875 2.52734375 C-6.49175781 2.41777344 -7.17882813 2.30820312 -7.88671875 2.1953125 C-4.63281887 0.02604591 -3.75275918 -0.04548799 0 0 Z " fill="#FBF9F7" transform="translate(19.88671875,13.8046875)"/>
<path d="M0 0 C2.64 0 5.28 0 8 0 C9.125 3.75 9.125 3.75 8 6 C9.32 6 10.64 6 12 6 C11.67 4.02 11.34 2.04 11 0 C12.65 0 14.3 0 16 0 C15.67 1.98 15.34 3.96 15 6 C15.66 6 16.32 6 17 6 C17 6.99 17 7.98 17 9 C13.7 9 10.4 9 7 9 C6.67 8.34 6.34 7.68 6 7 C5.01 6.67 4.02 6.34 3 6 C3 6.99 3 7.98 3 9 C2.01 9 1.02 9 0 9 C0 6.03 0 3.06 0 0 Z " fill="#D8A275" transform="translate(75,26)"/>
<path d="M0 0 C1.79240663 0.11389875 3.58394835 0.24147687 5.375 0.375 C6.87160156 0.47941406 6.87160156 0.47941406 8.3984375 0.5859375 C11 1 11 1 13 3 C13 3.99 13 4.98 13 6 C16.96 6 20.92 6 25 6 C25 6.99 25 7.98 25 9 C23.31970703 8.98259766 23.31970703 8.98259766 21.60546875 8.96484375 C20.13281417 8.95546378 18.66015778 8.9463638 17.1875 8.9375 C16.44951172 8.92912109 15.71152344 8.92074219 14.95117188 8.91210938 C11.70077932 8.89740172 9.10595105 8.96468298 6 10 C5.01 7.03 4.02 4.06 3 1 C2.34 1 1.68 1 1 1 C0.67 1.66 0.34 2.32 0 3 C0 2.01 0 1.02 0 0 Z " fill="#EED8C7" transform="translate(11,16)"/>
<path d="M0 0 C0.99773438 0.02320312 1.99546875 0.04640625 3.0234375 0.0703125 C4.52777344 0.09738281 4.52777344 0.09738281 6.0625 0.125 C6.83335938 0.14820312 7.60421875 0.17140625 8.3984375 0.1953125 C8.3984375 2.1753125 8.3984375 4.1553125 8.3984375 6.1953125 C1.4684375 6.1953125 -5.4615625 6.1953125 -12.6015625 6.1953125 C-12.2715625 5.5353125 -11.9415625 4.8753125 -11.6015625 4.1953125 C-9.27145341 3.51746258 -6.93796426 2.85114457 -4.6015625 2.1953125 C-2.6015625 0.1953125 -2.6015625 0.1953125 0 0 Z " fill="#FCFCFC" transform="translate(27.6015625,29.8046875)"/>
<path d="M0 0 C1.2065625 0.0309375 1.2065625 0.0309375 2.4375 0.0625 C2.7675 1.0525 3.0975 2.0425 3.4375 3.0625 C2.4475 3.3925 1.4575 3.7225 0.4375 4.0625 C1.4275 4.3925 2.4175 4.7225 3.4375 5.0625 C3.7675 6.3825 4.0975 7.7025 4.4375 9.0625 C1.4675 9.0625 -1.5025 9.0625 -4.5625 9.0625 C-3.56521739 0.08695652 -3.56521739 0.08695652 0 0 Z " fill="#CD8038" transform="translate(68.5625,8.9375)"/>
<path d="M0 0 C0.99386719 0.02707031 1.98773438 0.05414062 3.01171875 0.08203125 C4.15060547 0.13423828 4.15060547 0.13423828 5.3125 0.1875 C5.3125 0.8475 5.3125 1.5075 5.3125 2.1875 C4.15621094 2.26097656 4.15621094 2.26097656 2.9765625 2.3359375 C1.97367188 2.41070313 0.97078125 2.48546875 -0.0625 2.5625 C-1.06023438 2.63210937 -2.05796875 2.70171875 -3.0859375 2.7734375 C-5.84258879 2.95113964 -5.84258879 2.95113964 -7.6875 5.1875 C-11.80376002 5.85141291 -15.51598829 6.1875 -19.6875 6.1875 C-19.3575 4.8675 -19.0275 3.5475 -18.6875 2.1875 C-17.6975 2.5175 -16.7075 2.8475 -15.6875 3.1875 C-12.1875 3.52083333 -12.1875 3.52083333 -8.6875 3.1875 C-8.23761719 2.69121094 -7.78773437 2.19492187 -7.32421875 1.68359375 C-4.94639595 -0.48992924 -3.15392791 -0.1113151 0 0 Z " fill="#D8A279" transform="translate(30.6875,27.8125)"/>
<path d="M0 0 C2.64 0 5.28 0 8 0 C8 0.66 8 1.32 8 2 C6.35 2 4.7 2 3 2 C3 2.66 3 3.32 3 4 C4.32 4 5.64 4 7 4 C7 4.66 7 5.32 7 6 C5.68 6 4.36 6 3 6 C3 6.99 3 7.98 3 9 C2.01 9 1.02 9 0 9 C0 6.03 0 3.06 0 0 Z " fill="#CD813E" transform="translate(93,26)"/>
<path d="M0 0 C2.64 0 5.28 0 8 0 C8 0.66 8 1.32 8 2 C7.01 2.495 7.01 2.495 6 3 C6 3.66 6 4.32 6 5 C4.68 5 3.36 5 2 5 C2 5.66 2 6.32 2 7 C3.98 7 5.96 7 8 7 C8 7.33 8 7.66 8 8 C5.36 8 2.72 8 0 8 C0 5.36 0 2.72 0 0 Z " fill="#C97123" transform="translate(66,26)"/>
<path d="M0 0 C2.97 0 5.94 0 9 0 C9 0.99 9 1.98 9 3 C8.01 3 7.02 3 6 3 C6 4.98 6 6.96 6 9 C5.01 9 4.02 9 3 9 C3 6.69 3 4.38 3 2 C2.01 2 1.02 2 0 2 C0 1.34 0 0.68 0 0 Z " fill="#D28D51" transform="translate(74,9)"/>
<path d="M0 0 C0.99 0 1.98 0 3 0 C3.33 1.65 3.66 3.3 4 5 C4.66 5 5.32 5 6 5 C6.33 3.35 6.66 1.7 7 0 C7.99 0 8.98 0 10 0 C9.01 2.97 8.02 5.94 7 9 C5.68 8.67 4.36 8.34 3 8 C1.953125 6.15234375 1.953125 6.15234375 1.25 3.9375 C1.00765625 3.20402344 0.7653125 2.47054688 0.515625 1.71484375 C0.34546875 1.14894531 0.1753125 0.58304688 0 0 Z " fill="#CA7E30" transform="translate(54,26)"/>
<path d="M0 0 C0.99 0.33 1.98 0.66 3 1 C3 1.66 3 2.32 3 3 C3.66 3 4.32 3 5 3 C5.33 2.01 5.66 1.02 6 0 C6.99 0.33 7.98 0.66 9 1 C8.525625 1.5775 8.05125 2.155 7.5625 2.75 C6.0515133 4.92582084 5.45963849 6.42602448 5 9 C4.34 9 3.68 9 3 9 C2.01 6.03 1.02 3.06 0 0 Z " fill="#CB7927" transform="translate(103,26)"/>
<path d="M0 0 C0.66 0 1.32 0 2 0 C2 2.64 2 5.28 2 8 C4.64 8 7.28 8 10 8 C10 8.33 10 8.66 10 9 C7.03 9 4.06 9 1 9 C0.67 7.68 0.34 6.36 0 5 C-0.99 5.495 -0.99 5.495 -2 6 C-1.34 4.02 -0.68 2.04 0 0 Z " fill="#E4C4B1" transform="translate(64,26)"/>
<path d="M0 0 C1.65 0 3.3 0 5 0 C5 2.64 5 5.28 5 8 C3.35 8 1.7 8 0 8 C0.66 7.67 1.32 7.34 2 7 C2 5.35 2 3.7 2 2 C1.34 2 0.68 2 0 2 C0 1.34 0 0.68 0 0 Z " fill="#C87120" transform="translate(86,26)"/>
<path d="M0 0 C1.98 0 3.96 0 6 0 C6.33 2.64 6.66 5.28 7 8 C6.01 7.67 5.02 7.34 4 7 C4.33 5.02 4.66 3.04 5 1 C3.35 1 1.7 1 0 1 C0 0.67 0 0.34 0 0 Z " fill="#F3E8E1" transform="translate(86,25)"/>
<path d="M0 0 C0.66 0 1.32 0 2 0 C2 2.31 2 4.62 2 7 C-0.99332739 6.0022242 -1.94766315 5.2477975 -4 3 C-2.68 3 -1.36 3 0 3 C0 2.01 0 1.02 0 0 Z " fill="#C86E12" transform="translate(82,27)"/>
</svg>
